<svg  viewBox="0 0 1024 1024" xmlns="http://www.w3.org/2000/svg" width="200" height="200"><path d="M986.966 424.904L694.53 93.244c-6.343-7.25-14.24-11.134-23.043-11.134-8.803 0-17.217 3.884-23.043 11.133l-42.72 48.675-30.939 34.953c-1.942 2.2-3.884 3.883-5.437 6.084l-4.401 5.049c-22.525-26.02-45.568-52.04-73.142-82.462l-9.32-10.486c-22.525-25.503-46.086-51.523-68.611-78.06-5.825-7.25-14.758-11.134-24.078-10.487-9.321 0-18.124 4.402-24.079 11.651L34.315 424.904c-8.802 10.486-11.262 26.538-5.825 39.872s17.217 22.137 29.904 22.137h79.484c6.344 0 11.263 5.566 11.263 12.686l.518 325.059c.518 84.145 61.36 152.367 135.408 152.367h620.99v-2.719h2.46v-70.293H284.938c-38.318 0-70.164-35.47-70.164-78.708l-.518-325.059c0-47.639-34.305-85.828-76.507-85.828h-4.92L390.832 97.645c17.218 19.418 34.305 38.707 54.889 61.49l3.883 4.402 68.61 77.543c-2.459 2.718-4.918 5.566-7.896 8.285l-1.942 2.2c-12.816 12.687-25.502 26.538-36.765 43.238-22.007 33.27-27.444 76.378-13.722 113.013 10.745 28.739 31.458 50.358 57.866 61.49 29.904 12.17 65.245 9.45 94.243-7.766 34.823-20.454 55.406-63.174 52.946-111.33-2.46-48.675-27.962-84.146-50.487-109.648l8.803-9.968 42.72-48.157 8.285-9.45L886.64 416.101c-41.166 4.92-72.623 44.273-72.623 91.912v211.01c0 16.052-11.263 28.739-25.503 28.739h-218.13v73.66h216.318c50.099 0 91.265-45.957 91.265-103.046v-210.88c0-9.968 7.379-18.253 16.182-18.253h69.128c13.204 0 24.985-8.803 30.422-22.655 5.437-15.016 2.589-31.069-6.732-41.684zm-468.493-42.202c-4.79-11.65-2.59-26.538 5.825-38.189 8.544-11.133 20.713-22.266 31.328-31.845 4.272-3.755 9.58-8.544 14.37-13.205 16.44 16.441 33.398 36.118 34.434 58.902.518 6.86 0 29.645-19.03 39.742-14.37 7.379-31.328 8.544-45.05 3.754-10.744-2.718-18.123-9.58-21.877-19.159zm0 0" /></svg>
