<svg  viewBox="0 0 1024 1024" xmlns="http://www.w3.org/2000/svg" width="200" height="200"><path d="M977.455 558.545h-51.2c-4.655 41.891-18.619 83.782-32.582 121.019l41.89 23.272c23.273 13.964 27.928 41.891 18.619 65.164-13.964 23.273-41.891 27.927-65.164 18.618l-41.89-23.273c-23.273 32.582-55.855 65.164-88.437 88.437l23.273 41.89c13.963 23.273 4.654 51.2-18.619 65.164-23.272 13.964-51.2 4.655-65.163-18.618l-23.273-41.89c-37.236 18.617-79.127 27.927-121.018 32.581v46.546c0 27.927-18.618 46.545-46.546 46.545s-46.545-18.618-46.545-46.545v-51.2c-41.89-4.655-83.782-18.619-121.018-32.582l-23.273 41.89c-13.964 23.273-41.89 27.928-65.164 18.619-23.272-13.964-27.927-41.891-18.618-65.164L256 847.128c-32.582-23.273-65.164-55.855-88.436-88.437l-41.891 23.273c-23.273 13.963-51.2 4.654-65.164-18.619-13.964-23.272-4.654-51.2 18.618-65.163l41.891-23.273c-18.618-37.236-27.927-79.127-32.582-121.018h-41.89C18.617 553.89 0 535.273 0 507.345S18.618 460.8 46.545 460.8h51.2c4.655-41.89 18.619-83.782 32.582-121.018l-46.545-18.618C65.164 307.2 55.855 279.273 69.818 256c13.964-23.273 41.891-27.927 60.51-18.618l41.89 23.273c23.273-32.582 55.855-65.164 88.437-88.437l-23.273-41.89c-9.31-18.619-4.655-46.546 18.618-60.51s51.2-4.654 65.164 18.618l23.272 41.891c37.237-18.618 79.128-27.927 121.019-32.582v-51.2C465.455 18.618 484.073 0 512 0s46.545 18.618 46.545 46.545v51.2c41.891 4.655 83.782 18.619 121.019 32.582l23.272-41.89C716.8 65.163 744.727 60.508 768 69.817s27.927 41.891 18.618 65.164l-23.273 41.89c32.582 23.273 65.164 55.855 88.437 88.437l41.89-23.273c23.273-13.963 51.2-4.654 65.164 18.619 13.964 23.272 4.655 51.2-18.618 65.163l-41.89 23.273c18.617 37.236 27.927 79.127 32.581 121.018h46.546c27.927 0 46.545 18.618 46.545 46.546s-18.618 41.89-46.545 41.89zM512 186.182c-181.527 0-325.818 144.29-325.818 325.818S330.472 837.818 512 837.818 837.818 693.528 837.818 512 693.528 186.182 512 186.182zm0 465.454c-27.927 0-46.545-18.618-46.545-46.545V418.909c0-27.927 18.618-46.545 46.545-46.545s46.545 18.618 46.545 46.545v186.182c0 27.927-18.618 46.545-46.545 46.545z" /></svg>
