<svg class="icon" viewBox="0 0 1024 1024" xmlns="http://www.w3.org/2000/svg" width="200" height="200"><path d="M946.368 1023.68a33.696 33.696 0 0 1-33.568-33.696c0-207.488-179.808-376.448-400.832-376.448-3.168 0-6.272 0-9.472.064a28.896 28.896 0 0 1-7.488.864c-3.072 0-6.112-.064-9.216-.128C275.712 627.2 111.2 792.064 111.2 990.016c0 18.56-15.072 33.696-33.6 33.696s-33.632-15.136-33.632-33.696c0-96.32 32.128-188.064 93.024-265.184 53.6-67.936 127.84-120.672 211.072-150.368-91.52-54.24-147.392-155.36-147.392-269.856C200.672 136.832 339.296.352 509.664.352c170.4 0 308.96 136.48 308.96 304.256 0 79.616-31.072 154.88-87.424 212.032a33.568 33.568 0 1 1-47.808-47.232 233.12 233.12 0 0 0 68-164.736c0-130.688-108.384-237.024-241.728-237.024-133.312 0-241.728 106.336-241.728 237.024 0 132.8 93.248 236.96 216.96 242.464 8.96-.512 18.112-.736 27.136-.736 258.048 0 468 199.072 468 443.68a33.728 33.728 0 0 1-33.664 33.6z" /></svg>
